{"title":"Kosem Soultan dvd-7 greek subs","uid":13827320,"size":1910840062,"categoryP":"video","categoryS":"tv_shows","magnet":"?xt=urn:btih:241676c02ee0c5b0affbe9805ff700080225f511&amp;dn=Kosem+Soultan+dvd-7+greek+subs&amp;tr=udp%3A%2F%2Ftracker.leechers-paradise.org%3A6969&amp;tr=udp%3A%2F%2Fzer0day.ch%3A1337&amp;tr=udp%3A%2F%2Fopen.demonii.com%3A1337&amp;tr=udp%3A%2F%2Ftracker.coppersurfer.tk%3A6969&amp;tr=udp%3A%2F%2Fexodus.desync.com%3A6969","seeders":3,"leechers":0,"uploader":"panview","files":1,"time":1457703728,"description":"Greek Subtitles! Enjoy it and...please, seed!\r\n\r\nGeneral\r\nComplete name                            : Kosem Soultan dvd-7 greek subs.avi\r\nFormat                                   : AVI\r\nFormat/Info                              : Audio Video Interleave\r\nFormat profile                           : OpenDML\r\nFile size                                : 1.78 GiB\r\nDuration                                 : 1h 34mn\r\nOverall bit rate                         : 2 698 Kbps\r\nMovie name                               : kiosem.Title1\r\nWriting application                      : Lavf56.9.100\r\nOriginal source form/Name                : kiosem\r\n\r\nVideo\r\nID                                       : 0\r\nFormat                                   : MPEG-4 Visual\r\nFormat profile                           : Advanced   \r\nFormat settings, BVOP                    : 2\r\nFormat settings, QPel                    : No\r\nFormat settings, GMC                     : No warppoints\r\nFormat settings, Matrix                  : Default (MPEG)\r\nMuxing mode                              : Packed bitstream\r\nCodec ID                                 : XVID\r\nCodec ID/Hint                            : XviD\r\nDuration                                 : 1h 34mn\r\nBit rate                                 : 2 495 Kbps\r\nWidth                                    : 1 024 pixels\r\nHeight                                   : 576 pixels\r\nDisplay aspect ratio                     : 16:9\r\nFrame rate                               : 25.000 fps\r\nColor space                              : YUV\r\nChroma subsampling                       : 4:2:0\r\nBit depth                                : 8 bits\r\nScan type                                : Progressive\r\nCompression mode                         : Lossy\r\nBits/(Pixel*Frame)                       : 0.169\r\nStream size                              : 1.65 GiB (92%)\r\nWriting library                          : XviD 64\r\n\r\nAudio\r\nID                                       : 1\r\nFormat                                   : AC-3\r\nFormat/Info                              : Audio Coding 3\r\nMode extension                           : CM (complete main)\r\nFormat settings, Endianness              : Big\r\nCodec ID                                 : 2000\r\nDuration                                 : 1h 34mn\r\nBit rate mode                            : Constant\r\nBit rate                                 : 192 Kbps\r\nChannel(s)                               : 2 channels\r\nChannel positions                        : Front: L R\r\nSampling rate                            : 48.0 KHz\r\nCompression mode                         : Lossy\r\nStream size                              : 130 MiB (7%)\r\nAlignment                                : Aligned on interleaves\r\nInterleave, duration                     : 32 ms (0.80 video frame)","torrent":{"xt":"urn:btih:241676c02ee0c5b0affbe9805ff700080225f511","amp;dn":"Kosem+Soultan+dvd-7+greek+subs","amp;tr":["udp%3A%2F%2Ftracker.leechers-paradise.org%3A6969","udp%3A%2F%2Fzer0day.ch%3A1337","udp%3A%2F%2Fopen.demonii.com%3A1337","udp%3A%2F%2Ftracker.coppersurfer.tk%3A6969","udp%3A%2F%2Fexodus.desync.com%3A6969"],"infoHash":"241676c02ee0c5b0affbe9805ff700080225f511","infoHashBuffer":{"type":"Buffer","data":[36,22,118,192,46,224,197,176,175,251,233,128,95,247,0,8,2,37,245,17]},"announce":[],"urlList":[]}}